<?xml version="1.0" encoding="UTF-8" standalone="no"?>
<!-- Created with Inkscape (http://www.inkscape.org/) -->

<svg
   xmlns:dc="http://purl.org/dc/elements/1.1/"
   xmlns:cc="http://creativecommons.org/ns#"
   xmlns:rdf="http://www.w3.org/1999/02/22-rdf-syntax-ns#"
   xmlns:svg="http://www.w3.org/2000/svg"
   xmlns="http://www.w3.org/2000/svg"
   xmlns:sodipodi="http://sodipodi.sourceforge.net/DTD/sodipodi-0.dtd"
   xmlns:inkscape="http://www.inkscape.org/namespaces/inkscape"
   width="400"
   height="399.99997"
   viewBox="0 0 400.00001 400"
   id="svg2"
   version="1.1"
   inkscape:version="0.91 r13725"
   sodipodi:docname="bo.svg">
  <defs
     id="defs4" />
  <sodipodi:namedview
     id="base"
     pagecolor="#ffffff"
     bordercolor="#666666"
     borderopacity="1.0"
     inkscape:pageopacity="0.0"
     inkscape:pageshadow="2"
     inkscape:zoom="0.7"
     inkscape:cx="216.0624"
     inkscape:cy="94.531645"
     inkscape:document-units="px"
     inkscape:current-layer="layer1"
     showgrid="true"
     fit-margin-top="0"
     fit-margin-left="0"
     fit-margin-right="0"
     fit-margin-bottom="0"
     inkscape:snap-bbox="true"
     inkscape:bbox-nodes="true"
     inkscape:bbox-paths="true"
     inkscape:snap-bbox-edge-midpoints="true"
     units="px">
    <inkscape:grid
       type="xygrid"
       id="grid4147"
       originx="-884.7969"
       originy="-1684.7939" />
  </sodipodi:namedview>
  <metadata
     id="metadata7">
    <rdf:RDF>
      <cc:Work
         rdf:about="">
        <dc:format>image/svg+xml</dc:format>
        <dc:type
           rdf:resource="http://purl.org/dc/dcmitype/StillImage" />
        <dc:title></dc:title>
      </cc:Work>
    </rdf:RDF>
  </metadata>
  <g
     inkscape:groupmode="layer"
     id="layer2"
     inkscape:label="Layer 2"
     transform="translate(-884.79688,1032.4316)" />
  <g
     inkscape:label="Layer 1"
     inkscape:groupmode="layer"
     id="layer1"
     style="display:inline"
     transform="translate(-884.79688,1032.4316)">
    <path
       style="opacity:1;fill:#000000;fill-opacity:1;stroke:none;stroke-width:0.5;stroke-linecap:round;stroke-linejoin:miter;stroke-miterlimit:4;stroke-dasharray:none;stroke-dashoffset:0;stroke-opacity:1"
       d="m -40,0 0,400 40.00390625,0 L 320,400 360,400 360,0 320,0 0,0 -40,0 Z"
       transform="translate(924.79688,-1032.4316)"
       id="rect5423"
       inkscape:connector-curvature="0" />
    <path
       style="opacity:1;fill:#3cbcfc;fill-opacity:1;stroke:none;stroke-width:0.5;stroke-linecap:round;stroke-linejoin:miter;stroke-miterlimit:4;stroke-dasharray:none;stroke-dashoffset:0;stroke-opacity:1"
       d="m 924.79688,-1032.4316 0,134.99996 0,135 0,25 0,25 50,0 50.00002,0 0,-5 c 0,-4.7619 -0.2381,-5 -5,-5 l -5,0 0,-10 0,-10 -5,0 c -4.7619,0 -5,-0.2381 -5,-5 0,-4.7619 -0.2382,-5 -5.00002,-5 l 5.00002,0 10,0 0,-20 0,-20 -5,0 -5,0 0,-20 0,-20 -5.00002,0 c -4.76192,0 -5,-0.2381 -5,-5 0,-4.7619 -0.23811,-5 -5,-5 l -5,0 0,-25 0,-25 5,0 5,0 0,-40 0,-40 5,0 5.00002,0 0,-10 0,-10 5,0 5,0 0,-9.99996 0,-10 5,0 c 4.7619,0 5,-0.2381 5,-5 l 0,-5 60,0 60,0 0,5 c 0,4.7619 0.2381,5 5,5 l 5,0 0,10 0,9.99996 5,0 5,0 0,10 0,10 5,0 5,0 0,40 0,40 5,0 5,0 0,25 0,25 -5,0 c -4.7619,0 -5,0.2381 -5,5 0,4.7619 -0.2381,5 -5,5 l -5,0 0,20 0,20 -5,0 -5,0 0,20 0,20 10,0 5,0 c -4.7619,0 -5,0.2381 -5,5 0,4.7619 -0.2381,5 -5,5 l -5,0 0,10 0,10 -5,0 c -4.7619,0 -5,0.2381 -5,5 l 0,5 50,0 50,0 0,-25 0,-25 0,-135 0,-134.99996 -160,0 -160.00002,0 z m 9.98046,266.58199 c -0.0237,0.69336 -0.0753,1.2463 -0.18164,1.6875 -0.0707,0.29345 -0.16679,0.53753 -0.29492,0.74023 0.12858,-0.20298 0.22401,-0.4461 0.29492,-0.74023 0.10638,-0.4412 0.15793,-0.99414 0.18164,-1.6875 z m -0.9707,2.92188 c -0.20271,0.12813 -0.44678,0.22416 -0.74023,0.29492 -0.4412,0.10637 -0.99415,0.15792 -1.6875,0.18164 0.69336,-0.0237 1.2463,-0.0753 1.6875,-0.18164 0.29413,-0.0709 0.53725,-0.16634 0.74023,-0.29492 z m 302.31446,0.16796 c 0.085,0.0337 0.1829,0.0607 0.2793,0.0879 -0.097,-0.0273 -0.194,-0.054 -0.2793,-0.0879 z m 0.4805,0.14063 c 0.4291,0.0953 0.9565,0.1455 1.6132,0.16797 -0.6575,-0.0225 -1.1838,-0.0725 -1.6132,-0.16797 z"
       id="path4340"
       inkscape:connector-curvature="0" />
    <path
       style="opacity:1;fill:#ffffff;fill-opacity:1;stroke:none;stroke-width:0.5;stroke-linecap:round;stroke-linejoin:miter;stroke-miterlimit:4;stroke-dasharray:none;stroke-dashoffset:0;stroke-opacity:1"
       d="m 1035.291,-872.36328 0,4.79687 0,4.79883 5.0508,0 5.0508,0 0,-4.79883 0,-4.79687 -5.0508,0 -5.0508,0 z m 19.6973,0 0,4.79687 0,4.79883 5.0508,0 5.0507,0 0,-4.79883 0,-4.79687 -5.0507,0 -5.0508,0 z m 50.0039,0 0,4.79687 0,4.79883 5.0508,0 5.0508,0 0,-4.79883 0,-4.79687 -5.0508,0 -5.0508,0 z m 20.2031,0 0,4.79687 0,4.79883 5.0508,0 5.0508,0 0,-4.79883 0,-4.79687 -5.0508,0 -5.0508,0 z m -190.39842,99.93164 0,5 c 0,4.7619 -0.23811,5 -5,5 l -5,0 0,25 0,25 50,0 50.00002,0 0,-5 c 0,-4.7619 -0.2381,-5 -5,-5 l -5,0 0,-10 0,-10 -5,0 c -4.7619,0 -5,-0.2381 -5,-5 0,-4.7619 -0.2382,-5 -5.00002,-5 -4.76193,0 -5,-0.2381 -5,-5 l 0,-5 -10,0 -10,0 0,-5 0,-5 -20,0 -20,0 z m 260.00002,0 0,5 0,5 -10,0 -10,0 0,5 c 0,4.7619 -0.2381,5 -5,5 -4.7619,0 -5,0.2381 -5,5 0,4.7619 -0.2381,5 -5,5 l -5,0 0,10 0,10 -5,0 c -4.7619,0 -5,0.2381 -5,5 l 0,5 50,0 50,0 0,-25 0,-25 -5,0 c -4.7619,0 -5,-0.2381 -5,-5 l 0,-5 -20,0 -20,0 z"
       id="path4380"
       inkscape:connector-curvature="0" />
    <path
       style="opacity:1;fill:#c84c0c;fill-opacity:1;stroke:none;stroke-width:0.5;stroke-linecap:round;stroke-linejoin:miter;stroke-miterlimit:4;stroke-dasharray:none;stroke-dashoffset:0;stroke-opacity:1"
       d="m 1034.7969,-972.43164 0,5 c 0,4.7619 -0.2381,5 -5,5 -4.7619,0 -5,0.23809 -5,5 0,4.7619 -0.2381,5 -5,5 l -5,0 0,20 0,20 -5,0 -5,0 0,10 0,10 -5.00002,0 -5,0 0,10 0,10 5,0 5.00002,0 0,10 0,10 -5.00002,0 -5,0 0,-10 0,-10 -5,0 -5,0 0,15 0,15 5,0 c 4.76189,0 5,0.2381 5,5 0,4.7619 0.23808,5 5,5 l 5.00002,0 0,20 0,20 5,0 c 4.7619,0 5,0.2381 5,5 0,4.7619 0.2381,5 5,5 4.7619,0 5,0.2381 5,5 0,4.7619 0.2381,5 5,5 4.7619,0 5,0.2381 5,5 0,4.7619 0.2381,5 5,5 4.7619,0 5,0.2381 5,5 0,4.7619 0.2381,5 5,5 4.7619,0 5,0.2381 5,5 l 0,5 10,0 10,0 0,5 0,5 10,0 10,0 0,-5 0,-5 10,0 10,0 0,-5 c 0,-4.7619 0.2381,-5 5,-5 4.7619,0 5,-0.2381 5,-5 0,-4.7619 0.2381,-5 5,-5 4.7619,0 5,-0.2381 5,-5 0,-4.7619 0.2381,-5 5,-5 4.7619,0 5,-0.2381 5,-5 0,-4.7619 0.2381,-5 5,-5 4.7619,0 5,-0.2381 5,-5 0,-4.7619 0.2381,-5 5,-5 l 5,0 0,-20 0,-20 5,0 c 4.7619,0 5,-0.2381 5,-5 0,-4.7619 0.2381,-5 5,-5 l 5,0 0,-15 0,-15 -5,0 -5,0 0,10 0,10 -5,0 -5,0 0,-10 0,-10 5,0 5,0 0,-10 0,-10 -5,0 -5,0 0,-10 0,-10 -5,0 -5,0 0,-20 0,-20 -5,0 c -4.7619,0 -5,-0.2381 -5,-5 0,-4.76191 -0.2381,-5 -5,-5 -4.7619,0 -5,-0.2381 -5,-5 l 0,-5 -50,0 z m -10,80 20,0 20,0 0,5 c 0,4.7619 0.2381,5 5,5 l 5,0 0,10 0,10 -25,0 -25,0 0,-5 0,-5 10,0 10,0 0,-5 0,-5 -10,0 -10,0 0,-5 z m 80,0 20,0 20,0 0,5 0,5 -10,0 -10,0 0,5 0,5 10,0 10,0 0,5 0,5 -25,0 -25,0 0,-10 0,-10 5,0 c 4.7619,0 5,-0.2381 5,-5 z m -35,60 c 4.7619,0 5,0.2381 5,5 l 0,5 10,0 10,0 0,-5 c 0,-4.7619 0.2381,-5 5,-5 4.7619,0 5,0.2381 5,5 0,4.7619 -0.2381,5 -5,5 -4.7619,0 -5,0.2381 -5,5 l 0,5 -10,0 -10,0 0,-5 c 0,-4.7619 -0.2381,-5 -5,-5 -4.7619,0 -5,-0.2381 -5,-5 0,-4.7619 0.2381,-5 5,-5 z m -3.6945,30.31567 18.6945,-0.31567 20,0 0,5 0,5 10,0 10,0 0,5 c 0,4.7619 -0.2381,5 -5,5 -4.7619,0 -5,0.2381 -5,5 0,4.7619 -0.2381,5 -5,5 -4.7619,0 -5,0.2381 -5,5 l 0,5 -20,0 -20,0 0,-5 c 0,-4.7619 -0.2381,-5 -5,-5 -4.7619,0 -5.6582,-0.2838 -5,-5 0.7422,-5.31856 0.3634,-5.45116 -5,-5 -4.7451,0.39915 -5,-0.2381 -5,-5 l 0,-5 10,0 10.2954,-0.0631 1.0101,-4.6212 z m -51.0145,29.75659 0,14.9004 0,14.90039 5.0508,0 5.0508,0 0,10.10156 0,10.10156 5.0507,0 5.0508,0 0,4.79688 0,4.79882 50.002,0 50.0039,0 0,-4.79882 0,-4.79688 5.0508,0 5.0507,0 0,-10.10156 0,-10.10156 4.7969,0 4.7988,0 0,-14.90039 0,-14.9004 -4.7988,0 -4.7969,0 0,4.79883 0,4.79883 -5.0507,0 -5.0508,0 0,5.05078 0,5.05078 -5.0508,0 -5.0508,0 0,5.05078 0,5.05079 -5.0508,0 -5.0507,0 0,5.05078 0,5.05078 -5.0508,0 -5.0508,0 0,5.05078 0,5.05078 -19.9512,0 -19.9512,0 0,-5.05078 0,-5.05078 -5.0312,0 -5.0332,0 -0.1445,-4.92578 -0.1446,-4.92383 -4.6718,-0.14453 -4.6719,-0.14649 0,-5.03125 0,-5.03125 -5.0508,0 -5.0508,0 0,-5.05078 0,-5.05078 -5.0508,0 -5.0507,0 0,-4.79883 0,-4.79883 -5.0508,0 z"
       id="path4387"
       inkscape:connector-curvature="0"
       sodipodi:nodetypes="csssscccccccccccccccccccccccssscccsssssssssscccccccccccsssssssssscccssscccccccccccccccccccccccssssccccccssccccccccccccccccccccccccccccccccsscsscccssssscccsssscccccccssssscccssssscccccccccccccccccccccccccccccccccccccccccccccccccccccccccccccccccccccc" />
    <path
       style="opacity:1;fill:#fc7460;fill-opacity:1;stroke:none;stroke-width:0.5;stroke-linecap:round;stroke-linejoin:miter;stroke-miterlimit:4;stroke-dasharray:none;stroke-dashoffset:0;stroke-opacity:1"
       d="m 1065.0898,-802.66406 0,5.05078 0,5.05078 19.9512,0 19.9512,0 0,-5.05078 0,-5.05078 -19.9512,0 -19.9512,0 z m 39.9024,10.10156 0,5.05078 0,5.05078 5.0508,0 5.0508,0 0,-5.05078 0,-5.05078 -5.0508,0 -5.0508,0 z m 0,10.10156 -19.9512,0 -19.9512,0 0,5.05078 0,5.05078 19.9512,0 19.9512,0 0,-5.05078 0,-5.05078 z m -39.9024,0 0,-5.05078 0,-5.05078 -5.0507,0 -5.0508,0 0,5.05078 0,5.05078 5.0508,0 5.0507,0 z"
       id="path4392"
       inkscape:connector-curvature="0" />
    <g
       id="g4330"
       transform="matrix(0.36319545,0,0,0.36319545,752.61123,-1100.3582)"
       style="fill:#ffffff">
      <path
         inkscape:connector-curvature="0"
         id="path4312"
         d="m 639.28571,1143.0765 30,0 0,60 40,0 0,10 -70,0 z"
         style="fill:#ffffff;fill-rule:evenodd;stroke:none;stroke-width:1px;stroke-linecap:butt;stroke-linejoin:miter;stroke-opacity:1" />
      <path
         inkscape:connector-curvature="0"
         id="path4316"
         d="m 640.06821,1177.5629 0,-35.0145 14.82143,0.1931 14.82143,0.193 0.1864,29.8102 0.1864,29.8101 19.8136,0.1899 19.8136,0.1898 0.21121,4.8215 0.2112,4.8214 -35.03263,0 -35.03264,0 0,-35.0145 z"
         style="opacity:1;fill:#ffffff;fill-opacity:1;stroke:none;stroke-width:0.5;stroke-linecap:round;stroke-linejoin:miter;stroke-miterlimit:4;stroke-dasharray:none;stroke-dashoffset:0;stroke-opacity:1" />
      <path
         inkscape:connector-curvature="0"
         id="path4318"
         d="m 729.94195,1207.4511 0,-5 -5,0 -5,0 0,-25 0,-25 5,0 5,0 0,-5 0,-5 25,0 25,0 0,5 0,5 5,0 5,0 0,25 0,25 -5,0 -5,0 0,5 0,5 -25,0 -25,0 0,-5 z m 40,-30 0,-25 -10,0 -10,0 0,25 0,25 10,0 10,0 0,-25 z"
         style="opacity:1;fill:#ffffff;fill-opacity:1;stroke:none;stroke-width:0.5;stroke-linecap:round;stroke-linejoin:miter;stroke-miterlimit:4;stroke-dasharray:none;stroke-dashoffset:0;stroke-opacity:1" />
      <path
         inkscape:connector-curvature="0"
         id="path4320"
         d="m 799.97513,1182.3249 0,-30 5,0 5,0 0,-5 0,-5 25,0 24.99999,0 0,5 0,5 5,0 5,0 0,30 0,30 -15,0 -14.99999,0 0,-10 0,-10 -10,0 -10,0 0,10 0,10 -10,0 -10,0 0,-30 z m 40,-15 0,-15 -10,0 -10,0 0,15 0,15 10,0 10,0 0,-15 z"
         style="opacity:1;fill:#ffffff;fill-opacity:1;stroke:none;stroke-width:0.5;stroke-linecap:round;stroke-linejoin:miter;stroke-miterlimit:4;stroke-dasharray:none;stroke-dashoffset:0;stroke-opacity:1" />
      <path
         inkscape:connector-curvature="0"
         id="path4322"
         d="m 1040.1672,1177.4511 0,-35 10,0 10,0 0,5 0,5 5,0 5,0 0,5 0,5 5,0 5,0 0,5 0,5 5,0 5,0 0,-15 0,-15 10,0 10,0 0,35 0,35 -10,0 -10,0 0,-5 0,-5 -5,0 -5,0 0,-5 0,-5 -5,0 -5,0 0,-5 0,-5 -5,0 -5,0 0,15 0,15 -10,0 -10,0 0,-35 z"
         style="opacity:1;fill:#ffffff;fill-opacity:1;stroke:none;stroke-width:0.5;stroke-linecap:round;stroke-linejoin:miter;stroke-miterlimit:4;stroke-dasharray:none;stroke-dashoffset:0;stroke-opacity:1" />
      <path
         inkscape:connector-curvature="0"
         id="path4324"
         d="m 1129.9534,1207.2419 0,-5 -5,0 -5,0 0,-25 0,-25 5,0 5,0 0,-5 0,-5 30,0 30,0 0,5 0,5 -25,0 -25,0 0,25 0,25 10,0 10,0 0,-15 0,-15 -5,0 -5,0 0,-5 0,-5 20,0 20,0 0,25 0,25 -30,0 -30,0 0,-5 z"
         style="opacity:1;fill:#ffffff;fill-opacity:1;stroke:none;stroke-width:0.5;stroke-linecap:round;stroke-linejoin:miter;stroke-miterlimit:4;stroke-dasharray:none;stroke-dashoffset:0;stroke-opacity:1" />
      <path
         inkscape:connector-curvature="0"
         id="path4326"
         d="m 980.16719,1177.4511 0,-35 15,0 15.00001,0 0,35 0,35 -15.00001,0 -15,0 0,-35 z"
         style="opacity:1;fill:#ffffff;fill-opacity:1;stroke:none;stroke-width:0.5;stroke-linecap:round;stroke-linejoin:miter;stroke-miterlimit:4;stroke-dasharray:none;stroke-dashoffset:0;stroke-opacity:1" />
      <path
         inkscape:connector-curvature="0"
         id="path4328"
         d="m 879.84631,1177.5991 0,-35 25,0 25,0 0,5 0,5 5,0 5,0 0,5 0,5 5,0 5,0 0,15 0,15 -5,0 -5,0 0,5 0,5 -5,0 -5,0 0,5 0,5 -25,0 -25,0 0,-35 z m 40,0 0,-25 -10,0 -10,0 0,25 0,25 10,0 10,0 0,-25 z"
         style="opacity:1;fill:#ffffff;fill-opacity:1;stroke:none;stroke-width:0.5;stroke-linecap:round;stroke-linejoin:miter;stroke-miterlimit:4;stroke-dasharray:none;stroke-dashoffset:0;stroke-opacity:1" />
    </g>
    <path
       inkscape:connector-curvature="0"
       id="path5109"
       d="m 1180,-644.40901 0,0.49068 0,0.49068 1.9136,0 1.9137,0 0,0.49067 0,0.49068 -1.9137,0 -1.9136,0 0,0.49068 0,0.49068 1.9136,0 1.9137,0 0,1.47203 0,1.47204 -1.9137,0 -1.9136,0 0,0.44154 0,0.44153 2.8949,0 2.8949,0 0,-0.44153 0,-0.44154 0.4907,0 0.4907,0 0,-1.47204 0,-1.47203 -0.4907,0 -0.4907,0 0,-0.49068 0,-0.49068 0.4907,0 0.4907,0 0,-0.49068 0,-0.49067 -0.4907,0 -0.4907,0 0,-0.49068 0,-0.49068 -2.8949,0 -2.8949,0 z m 10.6966,0 0,0.49068 0,0.49068 0.4418,0 0.4415,0 0,1.96271 0,1.96271 -0.9322,0 -0.9324,0 0,-1.47203 0,-1.47204 -0.4907,0 -0.4907,0 0,0.49068 0,0.49068 -0.4907,0 -0.4906,0 0,1.47203 0,1.47204 1.9137,0 1.9136,0 0,0.44154 0,0.44153 1.472,0 1.4721,0 0,-3.38561 0,-3.3856 -1.9136,0 -1.9138,0 z m -0.9813,1.96271 0.4907,0 0.4906,0 0,-0.49068 0,-0.49067 -0.4906,0 -0.4907,0 0,0.49067 0,0.49068 z m 13.5428,-1.96271 0,3.3856 0,3.38561 2.9441,0 2.944,0 0,-0.44153 0,-0.44154 0.4907,0 0.4907,0 0,-1.47204 0,-1.47203 -0.4907,0 -0.4907,0 0,-0.49068 0,-0.49068 0.4907,0 0.4907,0 0,-0.49068 0,-0.49067 -0.4907,0 -0.4907,0 0,-0.49068 0,-0.49068 -2.944,0 -2.9441,0 z m 8.7339,0 0,0.49068 0,0.49068 -0.4907,0 -0.4906,0 0,2.45339 0,2.45339 0.4906,0 0.4907,0 0,0.44154 0,0.44153 2.4534,0 2.4534,0 0,-0.44153 0,-0.44154 0.4907,0 0.4907,0 0,-2.45339 0,-2.45339 -0.4907,0 -0.4907,0 0,-0.49068 0,-0.49068 -2.4534,0 -2.4534,0 z m 18.4496,0 0,2.94407 0,2.94407 -0.9324,0 -0.9322,0 0,-1.47204 0,-1.47203 -0.9814,0 -0.9813,0 0,1.47203 0,1.47204 0.4907,0 0.4906,0 0,0.44154 0,0.44153 2.4043,0 2.4044,0 0,-0.44153 0,-0.44154 0.4907,0 0.4907,0 0,-2.94407 0,-2.94407 -1.472,0 -1.4721,0 z m 4.9068,0 0,0.49068 0,0.49068 -0.4907,0 -0.4908,0 0,2.89492 0,2.89493 0.9815,0 0.9812,0 0,-0.93221 0,-0.93222 0.9813,0 0.9814,0 0,0.93222 0,0.93221 1.4231,0 1.4229,0 0,-2.89493 0,-2.89492 -0.4907,0 -0.4907,0 0,-0.49068 0,-0.49068 -2.4042,0 -2.4043,0 z m 7.7526,0 0,0.49068 0,0.49068 -0.4907,0 -0.4907,0 0,2.45339 0,2.45339 0.4907,0 0.4907,0 0,0.44154 0,0.44153 2.4534,0 2.4534,0 0,-0.44153 0,-0.44154 0.4906,0 0.4907,0 0,-0.98136 0,-0.98136 -1.472,0 -1.472,0 0,0.98136 0,0.98136 -0.9814,0 -0.9814,0 0,-2.45339 0,-2.45339 0.9814,0 0.9814,0 0,0.98135 0,0.98136 1.472,0 1.472,0 0,-0.98136 0,-0.98135 -0.4907,0 -0.4906,0 0,-0.49068 0,-0.49068 -2.4534,0 -2.4534,0 z m 6.7714,0 0,3.3856 0,3.38561 0.9813,0 0.9814,0 0,-1.42289 0,-1.4229 0.4907,0 0.4907,0 0,0.49068 0,0.49068 0.4906,0 0.4907,0 0,0.93222 0,0.93221 1.4721,0 1.472,0 0,-0.93221 0,-0.93222 -0.4907,0 -0.4907,0 0,-0.49068 0,-0.49068 -0.4906,0 -0.4907,0 0,-0.49067 0,-0.49068 0.4907,0 0.4906,0 0,-0.49068 0,-0.49068 0.4907,0 0.4907,0 0,-0.98135 0,-0.98136 -0.9814,0 -0.9813,0 0,0.98136 0,0.98135 -0.4907,0 -0.4907,0 0,0.49068 0,0.49068 -0.4907,0 -0.4906,0 0,-1.47204 0,-1.47203 -1.4721,0 -1.472,0 z m 8.8322,0 0,0.49068 0,0.49068 -0.4907,0 -0.4906,0 0,0.98135 0,0.98136 0.4906,0 0.4907,0 0,0.49068 0,0.49067 0.9322,0 0.9322,0 0,0.49068 0,0.49068 0.9814,0 0.9814,0 0,0.49068 0,0.49068 -1.4721,0 -1.472,0 0,-0.49068 0,-0.49068 -0.9322,0 -0.9322,0 0,0.49068 0,0.49068 0.4906,0 0.4907,0 0,0.44154 0,0.44153 2.4043,0 2.4042,0 0,-0.44153 0,-0.44154 0.4907,0 0.4907,0 0,-0.98136 0,-0.98136 -0.4907,0 -0.4907,0 0,-0.49067 0,-0.49068 -0.9813,0 -0.9814,0 0,-0.49068 0,-0.49068 -0.9814,0 -0.9813,0 0,-0.49068 0,-0.49067 1.472,0 1.4721,0 0,0.49067 0,0.49068 0.9813,0 0.9814,0 0,-0.49068 0,-0.49067 -0.4907,0 -0.4907,0 0,-0.49068 0,-0.49068 -2.4042,0 -2.4043,0 z m 7.7526,0 0,0.49068 0,0.49068 -0.4907,0 -0.4907,0 0,2.45339 0,2.45339 0.4907,0 0.4907,0 0,0.44154 0,0.44153 2.4044,0 2.4043,0 0,-0.44153 0,-0.44154 0.4907,0 0.4906,0 0,-2.45339 0,-2.45339 -0.4906,0 -0.4907,0 0,-0.49068 0,-0.49068 -2.4043,0 -2.4044,0 z m 6.7714,0 0,3.3856 0,3.38561 0.9813,0 0.9814,0 0,-1.42289 0,-1.4229 0.4907,0 0.4907,0 0,0.49068 0,0.49068 0.4906,0 0.4907,0 0,0.49068 0,0.49068 0.4907,0 0.4907,0 0,0.44154 0,0.44153 0.9322,0 0.9324,0 0,-3.38561 0,-3.3856 -0.9324,0 -0.9322,0 0,1.47203 0,1.47204 -0.4907,0 -0.4907,0 0,-0.49068 0,-0.49068 -0.4907,0 -0.4906,0 0,-0.49068 0,-0.49067 -0.4907,0 -0.4907,0 0,-0.49068 0,-0.49068 -0.9814,0 -0.9813,0 z m -68.0078,0.98136 0.9814,0 0.9813,0 0,0.49067 0,0.49068 -0.9813,0 -0.9814,0 0,-0.49068 0,-0.49067 z m 8.7339,0 0.9814,0 0.9814,0 0,2.45339 0,2.45339 -0.9814,0 -0.9814,0 0,-2.45339 0,-2.45339 z m 22.3749,0 0.9813,0 0.9814,0 0,1.47203 0,1.47203 -0.9814,0 -0.9813,0 0,-1.47203 0,-1.47203 z m 32.0903,0 0.9324,0 0.9322,0 0,2.45339 0,2.45339 -0.9322,0 -0.9324,0 0,-2.45339 0,-2.45339 z m -70.9519,1.96271 0,0.98135 0,0.98136 1.9136,0 1.9138,0 0,-0.98136 0,-0.98135 -1.9138,0 -1.9136,0 z m 7.7528,0 0.9814,0 0.9813,0 0,1.47203 0,1.47204 -0.9813,0 -0.9814,0 0,-1.47204 0,-1.47203 z"
       style="opacity:1;fill:#4d4d4d;fill-opacity:1;stroke:none;stroke-width:0.5;stroke-linecap:round;stroke-linejoin:miter;stroke-miterlimit:4;stroke-dasharray:none;stroke-dashoffset:0;stroke-opacity:1" />
  </g>
</svg>
