<?xml version="1.0" encoding="UTF-8" standalone="no"?>
<!-- Created with Inkscape (http://www.inkscape.org/) -->

<svg
   xmlns:dc="http://purl.org/dc/elements/1.1/"
   xmlns:cc="http://creativecommons.org/ns#"
   xmlns:rdf="http://www.w3.org/1999/02/22-rdf-syntax-ns#"
   xmlns:svg="http://www.w3.org/2000/svg"
   xmlns="http://www.w3.org/2000/svg"
   xmlns:sodipodi="http://sodipodi.sourceforge.net/DTD/sodipodi-0.dtd"
   xmlns:inkscape="http://www.inkscape.org/namespaces/inkscape"
   id="svg4155"
   version="1.1"
   inkscape:version="0.91 r13725"
   xml:space="preserve"
   width="420"
   height="300"
   viewBox="0 0 420 300"
   sodipodi:docname="rso-logo.svg"
   inkscape:export-filename="/Users/pmn/code/personal/reality-sports-app/resources/icon.png"
   inkscape:export-xdpi="121.75784"
   inkscape:export-ydpi="121.75784"><metadata
     id="metadata4161"><rdf:RDF><cc:Work
         rdf:about=""><dc:format>image/svg+xml</dc:format><dc:type
           rdf:resource="http://purl.org/dc/dcmitype/StillImage" /><dc:title></dc:title></cc:Work></rdf:RDF></metadata><defs
     id="defs4159" /><sodipodi:namedview
     pagecolor="#ffffff"
     bordercolor="#666666"
     borderopacity="1"
     objecttolerance="10"
     gridtolerance="10"
     guidetolerance="10"
     inkscape:pageopacity="0"
     inkscape:pageshadow="2"
     inkscape:window-width="1232"
     inkscape:window-height="730"
     id="namedview4157"
     showgrid="false"
     fit-margin-top="0"
     fit-margin-left="0"
     fit-margin-right="0"
     fit-margin-bottom="0"
     inkscape:zoom="0.76464646"
     inkscape:cx="310.72264"
     inkscape:cy="139.43201"
     inkscape:window-x="40"
     inkscape:window-y="17"
     inkscape:window-maximized="0"
     inkscape:current-layer="g4163" /><g
     id="g4163"
     inkscape:groupmode="layer"
     inkscape:label="RSO_Red485_Blue2935"
     transform="matrix(1.25,0,0,-1.25,-125.42662,351.81798)"><g
       id="g4788"
       transform="matrix(1.2114308,0,0,1.2114308,-390.4912,-74.034948)"><g
         id="g4776"><path
           d="m 501.756,99.771 17.287,0 0,14.967 -17.287,0 0,-14.967 z m -5.237,13.588 c 0,2.2 0.395,3.681 1.18,4.438 0.783,0.766 2.254,1.148 4.406,1.148 l 16.59,0 c 2.153,0 3.622,-0.382 4.403,-1.148 0.788,-0.757 1.182,-2.238 1.182,-4.438 l 0,-12.437 c 0,-2.2 -0.394,-3.687 -1.182,-4.443 -0.781,-0.765 -2.25,-1.146 -4.403,-1.146 l -16.59,0 c -2.152,0 -3.623,0.381 -4.406,1.146 -0.785,0.756 -1.18,2.243 -1.18,4.443 l 0,12.437 z"
           style="fill:#1574c4;fill-opacity:1;fill-rule:nonzero;stroke:none"
           id="path4173"
           inkscape:connector-curvature="0" /><g
           id="g4175"
           transform="translate(535.2871,95.333)"><path
             d="m 0,0 0,23.612 3.572,0 15.844,-13.91 c 1.14,-1.009 1.997,-1.861 2.575,-2.566 -0.138,2.198 -0.216,3.555 -0.216,4.072 l 0,12.404 4.715,0 L 26.49,0 22.912,0 6.368,14.596 C 5.673,15.203 5.04,15.849 4.49,16.52 4.636,14.988 4.708,13.744 4.708,12.766 L 4.708,0 0,0 Z"
             style="fill:#1574c4;fill-opacity:1;fill-rule:nonzero;stroke:none"
             id="path4177"
             inkscape:connector-curvature="0" /></g><g
           id="g4179"
           transform="translate(573.2588,95.333)"><path
             d="m 0,0 0,23.612 5.237,0 0,-19.174 16.897,0 L 22.134,0 0,0 Z"
             style="fill:#1574c4;fill-opacity:1;fill-rule:nonzero;stroke:none"
             id="path4181"
             inkscape:connector-curvature="0" /></g><path
           d="m 603.07,118.945 5.239,0 0,-23.612 -5.239,0 0,23.612 z"
           style="fill:#1574c4;fill-opacity:1;fill-rule:nonzero;stroke:none"
           id="path4183"
           inkscape:connector-curvature="0" /><g
           id="g4185"
           transform="translate(619.793,95.333)"><path
             d="m 0,0 0,23.612 3.578,0 15.839,-13.91 c 1.136,-1.009 2.001,-1.861 2.577,-2.566 -0.142,2.198 -0.217,3.555 -0.217,4.072 l 0,12.404 4.716,0 L 26.493,0 22.912,0 6.366,14.596 C 5.668,15.203 5.045,15.849 4.494,16.52 4.636,14.988 4.711,13.744 4.711,12.766 L 4.711,0 0,0 Z"
             style="fill:#1574c4;fill-opacity:1;fill-rule:nonzero;stroke:none"
             id="path4187"
             inkscape:connector-curvature="0" /></g><g
           id="g4189"
           transform="translate(657.7686,95.333)"><path
             d="m 0,0 0,23.612 23.045,0 0,-4.027 -17.81,0 0,-5.267 10.387,0 0,-4.028 -10.387,0 0,-5.852 18.032,0 L 23.267,0 0,0 Z"
             style="fill:#1574c4;fill-opacity:1;fill-rule:nonzero;stroke:none"
             id="path4191"
             inkscape:connector-curvature="0" /></g></g><g
         id="g4762"><g
           id="g4221"
           transform="translate(438.0146,178.207)"><path
             d="m 0,0 c 0,3.316 -0.088,7.95 -4.63,7.95 -2.971,0 -4.543,-2.185 -4.543,-4.981 0,-1.486 0.176,-2.969 1.398,-4.193 1.309,-1.398 4.629,-2.445 6.55,-2.971 5.59,-1.484 13.105,-3.492 17.819,-6.64 2.71,-1.834 4.718,-4.016 5.767,-7.16 1.224,-3.232 1.747,-6.816 1.747,-10.307 l 0,-0.352 c 0,-14.411 -6.376,-25.069 -28.65,-25.069 -9.522,0 -19.568,1.837 -27.169,7.864 l 0,20.091 22.8,0 c 0,-4.459 -0.086,-7.777 0.698,-9.349 0.785,-1.485 2.445,-2.445 4.193,-2.445 3.146,0 4.543,3.054 4.543,5.764 0,7.69 -4.804,8.299 -11.268,9.871 -14.151,3.493 -22.102,6.902 -22.102,23.062 l 0,1.66 c 0.351,8.034 1.66,12.054 7.776,16.683 4.977,3.756 12.229,4.631 19.217,4.631 10.133,0 19.131,-2.011 27.605,-7.862 l 0,-17.646 L 0,-1.399 0,0 Z"
             style="fill:#1574c4;fill-opacity:1;fill-rule:nonzero;stroke:none"
             id="path4223"
             inkscape:connector-curvature="0" /></g><g
           id="g4225"
           transform="translate(485.3262,141.084)"><path
             d="m 0,0 c 1.049,-0.702 2.446,-1.137 3.756,-1.137 4.105,0 4.105,3.666 4.105,6.813 l 0,12.142 c 0,2.969 0,7.773 -4.192,7.773 C 2.534,25.591 1.049,25.243 0,24.63 L 0,0 Z m -0.523,36.772 c 3.931,2.972 8.735,4.282 13.625,4.282 5.155,0 9.96,-1.136 12.929,-5.68 2.968,-3.669 2.445,-12.927 2.445,-15.025 l 0,-17.555 c 0,-2.099 -0.348,-9.873 -2.969,-13.364 -3.058,-4.106 -7.862,-5.679 -12.927,-5.679 -4.368,0 -8.911,1.22 -12.58,4.02 l 0,-2.887 c 0,-2.881 -0.264,-5.412 2.534,-7.246 l 0,-12.492 -25.682,0 0,12.492 c 2.794,1.834 2.532,4.365 2.532,7.246 l 0,35.29 c 0,2.887 0.262,5.417 -2.532,7.254 l 0,12.49 22.625,0 0,-3.146 z"
             style="fill:#1574c4;fill-opacity:1;fill-rule:nonzero;stroke:none"
             id="path4227"
             inkscape:connector-curvature="0" /></g><g
           id="g4229"
           transform="translate(536.6611,145.1855)"><path
             d="m 0,0 c 0,-2.968 -0.263,-7.513 3.844,-7.513 4.191,0 3.928,4.545 3.928,7.513 l 0,15.899 c 0,2.97 0.613,8.211 -3.84,8.211 C -0.524,24.11 0,18.959 0,15.899 L 0,0 Z m 28.39,1.748 c 0,-6.113 -0.176,-13.015 -5.154,-17.295 -4.979,-4.28 -12.317,-4.804 -18.607,-4.804 -5.678,0 -13.714,0.438 -18.521,3.669 -6.722,4.453 -6.722,11.179 -6.722,18.43 l 0,14.324 c 0,5.941 0.087,12.407 5.241,16.426 4.978,3.927 11.703,4.454 17.906,4.454 5.591,0 13.976,-0.439 18.782,-3.233 6.638,-4.017 7.075,-10.656 7.075,-17.647 l 0,-14.324 z"
             style="fill:#1574c4;fill-opacity:1;fill-rule:nonzero;stroke:none"
             id="path4231"
             inkscape:connector-curvature="0" /></g><g
           id="g4233"
           transform="translate(589.3818,176.6338)"><path
             d="m 0,0 c 2.186,3.757 4.455,5.592 8.91,5.592 0.789,0 1.66,-0.088 2.447,-0.262 l 0,-18.782 -1.658,0 c -7.164,0 -8.736,-4.019 -8.736,-10.481 l 0,-5.33 c 0,-1.745 0,-4.192 0.348,-5.939 0.35,-1.838 0.875,-2.274 2.622,-3.146 l 0,-12.318 -26.12,0 0,12.493 c 2.795,1.835 2.536,4.368 2.536,7.25 l 0,15.547 c 0,2.887 0.259,5.417 -2.536,7.254 l 0,12.49 L 0,4.368 0,0 Z"
             style="fill:#1574c4;fill-opacity:1;fill-rule:nonzero;stroke:none"
             id="path4235"
             inkscape:connector-curvature="0" /></g><g
           id="g4237"
           transform="translate(625.9199,181.002)"><path
             d="m 0,0 6.814,0 0,-12.576 -6.814,0 0,-21.055 c 0,-5.939 -0.088,-8.125 6.814,-8.91 l 0,-12.493 -10.306,-0.783 c -4.543,-0.35 -10.134,0.435 -13.627,3.843 -3.757,3.756 -3.496,8.908 -3.496,13.714 l 0,25.684 -2.531,0 0,12.576 2.531,0 0,10.743 L 0,16.596 0,0 Z"
             style="fill:#1574c4;fill-opacity:1;fill-rule:nonzero;stroke:none"
             id="path4239"
             inkscape:connector-curvature="0" /></g><g
           id="g4241"
           transform="translate(654.3115,145.1855)"><path
             d="m 0,0 c 0,-3.145 -0.35,-7.513 4.104,-7.513 2.184,0 3.932,1.835 3.932,4.194 0,4.98 -6.288,5.764 -9.958,6.641 -9.87,2.269 -18.432,4.019 -18.432,16.074 0,5.764 1.398,10.393 6.376,13.798 4.368,2.883 10.748,3.758 15.899,3.758 8.735,0 17.732,-1.747 24.808,-7.163 l 0,-13.103 -19.128,0 0,2.007 c 0,2.536 -0.789,5.417 -4.107,5.417 -2.184,0 -4.018,-1.659 -4.018,-3.757 0,-3.929 5.24,-4.628 8.21,-5.239 10.746,-2.273 20.528,-4.019 20.528,-17.47 0,-14.326 -11.093,-17.995 -23.498,-17.995 -7.774,0 -18.255,1.834 -24.109,7.424 l 0,14.24 L 0,1.313 0,0 Z"
             style="fill:#1574c4;fill-opacity:1;fill-rule:nonzero;stroke:none"
             id="path4243"
             inkscape:connector-curvature="0" /></g></g></g><g
       id="g7130"
       transform="translate(0,1.055614)"><g
         transform="matrix(1.109772,0,0,1.109772,-11.014665,43.977268)"
         id="g4746"><g
           id="g4193"
           transform="translate(126.1973,170.083)"><path
             d="m 0,0 2.358,0 c 5.067,0 6.639,2.619 6.639,7.861 0,4.804 -1.572,7.425 -6.639,7.425 L 0,15.286 0,0 Z m 0,-23.497 c 0,-2.798 -0.263,-5.589 2.533,-7.34 l 0,-13.278 -28.389,0 0,13.278 c 2.795,1.751 2.533,4.542 2.533,7.34 l 0,33.631 c 0,2.792 0.262,5.588 -2.533,7.335 l 0,13.277 32.408,0 c 5.765,0 13.014,0.087 18.082,-2.967 6.114,-3.584 8.211,-9.959 8.211,-16.774 0,-8.211 -2.447,-15.374 -11.181,-17.557 l 0,-0.175 c 7.337,-1.747 9.782,-4.89 9.782,-12.493 l 0,-4.277 c 0,-2.534 0,-6.204 2.883,-7.34 l 0,-13.278 -25.069,0 c -0.963,4.105 -1.573,7.6 -1.312,20.093 0,5.939 -0.611,8.909 -6.987,9.083 l -0.961,0 0,-8.558 z"
             style="fill:#ee2722;fill-opacity:1;fill-rule:nonzero;stroke:none"
             id="path4195"
             inkscape:connector-curvature="0" /></g><g
           id="g4197"
           transform="translate(189.895,163.7051)"><path
             d="M 0,0 C 0,2.186 -0.349,5.591 -4.018,5.591 -7.687,5.591 -8.036,2.186 -8.036,0 l 0,-2.096 8.036,0 L 0,0 Z m -28.651,-2.708 c -0.35,15.026 4.717,21.054 24.023,21.141 20.264,0.088 25.245,-6.641 24.894,-20.092 l 0,-13.018 -28.302,0 0,-5.065 c -0.088,-2.706 0.262,-6.29 3.844,-6.29 3.581,0 3.843,3.235 3.843,6.026 l 0,2.012 20.615,0 0,-13.804 c -4.543,-3.929 -13.016,-6.463 -21.489,-7.072 -8.385,-0.612 -16.859,0.785 -21.401,4.193 -5.765,4.277 -6.027,10.39 -6.027,17.032 l 0,14.937 z"
             style="fill:#ee2722;fill-opacity:1;fill-rule:nonzero;stroke:none"
             id="path4199"
             inkscape:connector-curvature="0" /></g><g
           id="g4201"
           transform="translate(240.6216,149.3799)"><path
             d="m 0,0 c -3.669,-1.486 -8.562,-2.357 -8.562,-6.201 0,-1.747 1.136,-3.761 2.971,-3.408 1.747,0 3.668,0.611 5.591,2.008 L 0,0 Z m 0.785,-19.218 c -4.367,-3.669 -8.647,-5.327 -14.326,-5.327 -9.608,0 -15.635,6.026 -15.635,15.725 0,11.003 6.638,14.235 15.897,17.294 L 0,12.753 0,14.675 c 0,2.707 -0.7,5.416 -3.582,5.416 -3.319,0 -4.018,-2.709 -4.018,-5.416 l 0,-2.27 -19.306,0 0,13.538 c 7.076,5.068 15.987,6.815 24.547,6.815 5.503,0 12.578,-0.875 17.208,-4.368 5.765,-4.545 5.854,-10.308 5.765,-16.685 l 0,-15.374 c 0,-2.882 -0.262,-5.415 2.533,-7.425 l 0,-12.318 -22.362,0 0,4.194 z"
             style="fill:#ee2722;fill-opacity:1;fill-rule:nonzero;stroke:none"
             id="path4203"
             inkscape:connector-curvature="0" /></g><g
           id="g4205"
           transform="translate(288.4658,145.5371)"><path
             d="m 0,0 c 0,-2.708 -0.262,-5.767 2.533,-7.251 l 0,-12.318 -25.68,0 0,12.318 c 2.708,1.661 2.533,4.108 2.533,6.899 l 0,36.078 c 0,2.795 0.262,5.591 -2.533,7.251 l 0,12.296 L 0,55.273 0,0 Z"
             style="fill:#ee2722;fill-opacity:1;fill-rule:nonzero;stroke:none"
             id="path4207"
             inkscape:connector-curvature="0" /></g><g
           id="g4209"
           transform="translate(316.6499,145.5371)"><path
             d="m 0,0 c 0,-2.795 -0.262,-5.59 2.62,-7.251 l 0,-12.318 -25.77,0 0,12.318 c 2.709,1.661 2.533,4.108 2.533,6.899 l 0,16.248 c 0,2.797 0.263,5.59 -2.533,7.252 l 0,12.317 23.15,0 L 0,0 Z"
             style="fill:#ee2722;fill-opacity:1;fill-rule:nonzero;stroke:none"
             id="path4211"
             inkscape:connector-curvature="0" /></g><g
           id="g4213"
           transform="translate(342.2051,181.002)"><path
             d="m 0,0 6.814,0 0,-12.576 -6.814,0 0,-21.055 c 0,-5.939 -0.087,-8.125 6.814,-8.91 l 0,-12.493 -10.308,-0.783 c -4.542,-0.35 -10.133,0.435 -13.627,3.843 -3.755,3.756 -3.494,8.908 -3.494,13.714 l 0,25.684 -2.533,0 0,12.576 2.533,0 0,10.743 L 0,16.596 0,0 Z"
             style="fill:#ee2722;fill-opacity:1;fill-rule:nonzero;stroke:none"
             id="path4215"
             inkscape:connector-curvature="0" /></g><g
           id="g4217"
           transform="translate(380.6572,181.002)"><path
             d="m 0,0 22.449,0 0,-12.316 c -2.444,-1.663 -3.056,-5.069 -3.843,-7.776 L 8.822,-53.198 c -3.405,-11.704 -6.2,-21.574 -20.614,-21.574 -3.232,0 -6.376,0.347 -9.522,1.22 l 0,11.967 c 3.932,0 6.726,1.311 8.124,5.157 l -13.364,37.91 c -0.962,2.706 -1.398,4.802 -3.844,6.202 l 0,12.316 26.294,0 0,-12.316 c -1.311,-0.614 -2.272,-0.961 -2.272,-2.622 0,-0.96 0.524,-2.708 0.698,-3.58 l 4.018,-13.02 3.233,13.02 c 0.175,0.872 0.698,2.62 0.698,3.58 0,1.661 -0.96,2.008 -2.271,2.622 L 0,0 Z"
             style="fill:#ee2722;fill-opacity:1;fill-rule:nonzero;stroke:none"
             id="path4219"
             inkscape:connector-curvature="0" /></g></g><g
         transform="matrix(1.109772,0,0,1.109772,327.59098,280.39877)"
         id="g4245"><path
           inkscape:connector-curvature="0"
           id="path4247"
           style="fill:#1574c4;fill-opacity:1;fill-rule:nonzero;stroke:none"
           d="m 0,0 4.389,-12.226 12.126,0 -9.647,-6.922 4.669,-12.886 -11.533,8.132 -11.617,-8.132 4.754,12.886 -9.657,6.922 12.126,0 L 0,0 Z" /></g></g></g></svg>