<?xml version="1.0" encoding="UTF-8" standalone="no"?>
<!-- Created with Inkscape (http://www.inkscape.org/) -->

<svg
   xmlns:dc="http://purl.org/dc/elements/1.1/"
   xmlns:cc="http://creativecommons.org/ns#"
   xmlns:rdf="http://www.w3.org/1999/02/22-rdf-syntax-ns#"
   xmlns:svg="http://www.w3.org/2000/svg"
   xmlns="http://www.w3.org/2000/svg"
   xmlns:sodipodi="http://sodipodi.sourceforge.net/DTD/sodipodi-0.dtd"
   xmlns:inkscape="http://www.inkscape.org/namespaces/inkscape"
   id="svg4155"
   version="1.1"
   inkscape:version="0.91 r13725"
   xml:space="preserve"
   width="150"
   height="150"
   viewBox="0 0 150 150"
   sodipodi:docname="rso-tile-logo.svg"
   inkscape:export-filename="/Users/pmn/code/personal/reality-sports-app/resources/icon.png"
   inkscape:export-xdpi="121.75784"
   inkscape:export-ydpi="121.75784"><metadata
     id="metadata4161"><rdf:RDF><cc:Work
         rdf:about=""><dc:format>image/svg+xml</dc:format><dc:type
           rdf:resource="http://purl.org/dc/dcmitype/StillImage" /><dc:title></dc:title></cc:Work></rdf:RDF></metadata><defs
     id="defs4159" /><sodipodi:namedview
     pagecolor="#ffffff"
     bordercolor="#666666"
     borderopacity="1"
     objecttolerance="10"
     gridtolerance="10"
     guidetolerance="10"
     inkscape:pageopacity="0"
     inkscape:pageshadow="2"
     inkscape:window-width="1232"
     inkscape:window-height="730"
     id="namedview4157"
     showgrid="false"
     fit-margin-top="0"
     fit-margin-left="0"
     fit-margin-right="0"
     fit-margin-bottom="0"
     inkscape:zoom="1.5292929"
     inkscape:cx="115.19944"
     inkscape:cy="40.431726"
     inkscape:window-x="40"
     inkscape:window-y="17"
     inkscape:window-maximized="0"
     inkscape:current-layer="g4163" /><g
     id="g4163"
     inkscape:groupmode="layer"
     inkscape:label="RSO_Red485_Blue2935"
     transform="matrix(1.25,0,0,-1.25,-125.42662,201.81797)"><g
       id="g4298"
       transform="translate(3.643059,-210.13475)"><path
         d="m 158.11665,320.428 c 0,1.97945 -0.0525,4.74567 -2.76383,4.74567 -1.77351,0 -2.71189,-1.30431 -2.71189,-2.97335 0,-0.88705 0.10506,-1.77232 0.83452,-2.50296 0.78139,-0.83453 2.76322,-1.45952 3.90995,-1.77351 3.33689,-0.88586 7.82288,-2.08451 10.63685,-3.96368 1.61771,-1.09479 2.81636,-2.39731 3.44255,-4.27409 0.73066,-1.9293 1.04285,-4.06873 1.04285,-6.15265 l 0,-0.21012 c 0,-8.60249 -3.80608,-14.96467 -17.1023,-14.96467 -5.68405,0 -11.68091,1.09658 -16.21824,4.69433 l 0,11.99311 13.61021,0 c 0,-2.66175 -0.0513,-4.6424 0.41666,-5.58079 0.4686,-0.88646 1.45952,-1.45952 2.50297,-1.45952 1.87797,0 2.7119,1.82306 2.7119,3.44077 0,4.59046 -2.8677,4.95399 -6.72632,5.89239 -8.44728,2.0851 -13.19354,4.12006 -13.19354,13.7666 l 0,0.99092 c 0.20952,4.79581 0.99092,7.19551 4.6418,9.95874 2.97096,2.2421 7.29997,2.76442 11.47137,2.76442 6.04879,0 11.42005,-1.20044 16.47851,-4.69313 l 0,-10.53359 -12.98402,0 0,0.83511 z"
         style="fill:#1574c4;fill-opacity:1;fill-rule:nonzero;stroke:none"
         id="path4223"
         inkscape:connector-curvature="0" /><path
         d="m 190.82137,304.85913 c 0,-2.40644 -0.21324,-6.09151 3.1167,-6.09151 3.39804,0 3.1848,3.68507 3.1848,6.09151 l 0,12.89082 c 0,2.40807 0.49702,6.65744 -3.11345,6.65744 -3.6129,0 -3.18805,-4.17641 -3.18805,-6.65744 l 0,-12.89082 z m 23.01847,1.41727 c 0,-4.95639 -0.1427,-10.5525 -4.17884,-14.0227 -4.03695,-3.4702 -9.98656,-3.89506 -15.08646,-3.89506 -4.60369,0 -11.11924,0.35513 -15.01673,2.97481 -5.45016,3.61047 -5.45016,9.06387 -5.45016,14.94295 l 0,11.61383 c 0,4.81692 0.0705,10.05952 4.24937,13.3181 4.03614,3.184 9.48873,3.61128 14.51809,3.61128 4.53316,0 11.33167,-0.35593 15.22835,-2.62129 5.38206,-3.25697 5.73638,-8.63984 5.73638,-14.30809 l 0,-11.61383 z"
         style="fill:#1574c4;fill-opacity:1;fill-rule:nonzero;stroke:none"
         id="path4231"
         inkscape:connector-curvature="0" /><path
         d="m 115.60353,315.73762 1.46343,0 c 3.14472,0 4.12034,1.62542 4.12034,4.87874 0,2.98148 -0.97562,4.60814 -4.12034,4.60814 l -1.46343,0 0,-9.48688 z m 0,-14.58284 c 0,-1.73651 -0.16323,-3.46868 1.57204,-4.55539 l 0,-8.24067 -17.618936,0 0,8.24067 c 1.734646,1.08671 1.572046,2.81888 1.572046,4.55539 l 0,20.87226 c 0,1.73279 0.1626,3.46806 -1.572046,4.55229 l 0,8.24005 20.113236,0 c 3.5779,0 8.07682,0.054 11.22215,-1.8414 3.79451,-2.22432 5.09596,-6.18081 5.09596,-10.41037 0,-5.09596 -1.51867,-9.5415 -6.93922,-10.89633 l 0,-0.10861 c 4.55353,-1.08423 6.07096,-3.03486 6.07096,-7.75348 l 0,-2.65441 c 0,-1.57266 0,-3.85036 1.78927,-4.55539 l 0,-8.24067 -15.55847,0 c -0.59766,2.54767 -0.97624,4.71676 -0.81426,12.47023 0,3.6859 -0.3792,5.52916 -4.33631,5.63715 l -0.59642,0 0,-5.31132 z"
         style="fill:#ee2722;fill-opacity:1;fill-rule:nonzero;stroke:none"
         id="path4195"
         inkscape:connector-curvature="0" /></g></g></svg>